<!DOCTYPE svg PUBLIC "-//W3C//DTD SVG 1.1//EN" "http://www.w3.org/Graphics/SVG/1.1/DTD/svg11.dtd"> <svg width="521px" height="521px" version="1.1" baseProfile="full" xmlns="http://www.w3.org/2000/svg" xmlns:xlink="http://www.w3.org/1999/xlink" xmlns:ev="http://www.w3.org/2001/xml-events"><polygon fill="rgb(247,132,25)" stroke="rgb(247,132,25)" points="258.0377524495125,66.60487179458141 230.29084892570972,66.91054126620293 220.52434614300728,42.04825848340988"></polygon><polygon fill="rgb(247,132,25)" stroke="rgb(247,132,25)" points="220.52434614300728,42.04825848340988 270.1733860373497,41.335256457328796 258.0377524495125,66.60487179458141"></polygon><polygon fill="rgb(228,119,25)" stroke="rgb(228,119,25)" points="230.29084892570972,66.91054126620293 161.19148117303848,15.67886483669281 220.52434614300728,42.04825848340988"></polygon><polygon fill="rgb(119,57,0)" stroke="rgb(119,57,0)" points="189.75372299551964,90.18100582063198 158.1782142519951,81.84571568667889 156.5850926041603,74.58468303084373"></polygon><polygon fill="rgb(225,119,25)" stroke="rgb(225,119,25)" points="327.78185015916824,12.674230337142944 258.0377524495125,66.60487179458141 270.1733860373497,41.335256457328796"></polygon><polygon fill="rgb(119,57,0)" stroke="rgb(119,57,0)" points="159.14022946357727,90.57994776964188 158.1782142519951,81.84571568667889 189.75372299551964,90.18100582063198"></polygon><polygon fill="rgb(119,57,0)" stroke="rgb(119,57,0)" points="163.39832657575607,103.25341241061687 189.75372299551964,90.18100582063198 202.89250445365906,92.18047178536654"></polygon><polygon fill="rgb(119,57,0)" stroke="rgb(119,57,0)" points="159.14022946357727,90.57994776964188 189.75372299551964,90.18100582063198 163.39832657575607,103.25341241061687"></polygon><polygon fill="rgb(119,57,0)" stroke="rgb(119,57,0)" points="190.62957626581192,49.85516840219498 189.75372299551964,90.18100582063198 156.5850926041603,74.58468303084373"></polygon><polygon fill="rgb(119,57,0)" stroke="rgb(119,57,0)" points="202.89250445365906,92.18047178536654 189.75372299551964,90.18100582063198 190.62957626581192,49.85516840219498"></polygon><polygon fill="rgb(225,119,25)" stroke="rgb(225,119,25)" points="216.22602912783623,168.67043659090996 159.2965562939644,190.7913561463356 202.630539894104,173.35091646015644"></polygon><polygon fill="rgb(225,119,25)" stroke="rgb(225,119,25)" points="202.630539894104,173.35091646015644 213.820925116539,168.54769015312195 216.22602912783623,168.67043659090996"></polygon><polygon fill="rgb(119,57,0)" stroke="rgb(119,57,0)" points="301.22807416319847,89.29514521360397 334.6609198451042,72.78800724446774 332.97663259506226,80.25391882658005"></polygon><polygon fill="rgb(119,57,0)" stroke="rgb(119,57,0)" points="331.9161130785942,89.21056962013245 301.22807416319847,89.29514521360397 332.97663259506226,80.25391882658005"></polygon><polygon fill="rgb(119,57,0)" stroke="rgb(119,57,0)" points="327.4922463297844,102.23428149521351 286.9464565515518,91.53625598549843 301.22807416319847,89.29514521360397"></polygon><polygon fill="rgb(119,57,0)" stroke="rgb(119,57,0)" points="331.9161130785942,89.21056962013245 327.4922463297844,102.23428149521351 301.22807416319847,89.29514521360397"></polygon><polygon fill="rgb(119,57,0)" stroke="rgb(119,57,0)" points="334.6609198451042,72.78800724446774 301.22807416319847,89.29514521360397 298.648989379406,48.41108679771423"></polygon><polygon fill="rgb(119,57,0)" stroke="rgb(119,57,0)" points="298.648989379406,48.41108679771423 301.22807416319847,89.29514521360397 286.9464565515518,91.53625598549843"></polygon><polygon fill="rgb(225,119,25)" stroke="rgb(225,119,25)" points="274.94751638174057,168.8231235295534 275.98833283782005,168.70836882293224 285.54167050123215,173.6189955919981"></polygon><polygon fill="rgb(119,57,0)" stroke="rgb(119,57,0)" points="152.44374758005142,77.18135105073452 156.5850926041603,74.58468303084373 158.1782142519951,81.84571568667889"></polygon><polygon fill="rgb(119,57,0)" stroke="rgb(119,57,0)" points="159.14022946357727,90.57994776964188 153.47286683321,85.00221444666386 158.1782142519951,81.84571568667889"></polygon><polygon fill="rgb(119,57,0)" stroke="rgb(119,57,0)" points="156.5850926041603,74.58468303084373 151.4862631559372,44.0275082886219 190.62957626581192,49.85516840219498"></polygon><polygon fill="rgb(119,57,0)" stroke="rgb(119,57,0)" points="163.39832657575607,103.25341241061687 155.2880703806877,92.98170159757137 159.14022946357727,90.57994776964188"></polygon><polygon fill="rgb(119,57,0)" stroke="rgb(119,57,0)" points="190.62957626581192,49.85516840219498 230.29084892570972,66.91054126620293 202.89250445365906,92.18047178536654"></polygon><polygon fill="rgb(228,119,25)" stroke="rgb(228,119,25)" points="202.630539894104,173.35091646015644 159.2965562939644,190.7913561463356 148.77113378047943,145.9679049104452"></polygon><polygon fill="rgb(247,132,25)" stroke="rgb(247,132,25)" points="189.38770061731339,104.99975257739425 148.77113378047943,145.9679049104452 163.39832657575607,103.25341241061687"></polygon><polygon fill="rgb(119,57,0)" stroke="rgb(119,57,0)" points="286.9464565515518,91.53625598549843 258.0377524495125,66.60487179458141 298.648989379406,48.41108679771423"></polygon><polygon fill="rgb(228,119,25)" stroke="rgb(228,119,25)" points="148.77113378047943,145.9679049104452 182.525126516819,139.4746963456273 202.630539894104,173.35091646015644"></polygon><polygon fill="rgb(247,132,25)" stroke="rgb(247,132,25)" points="182.525126516819,139.4746963456273 148.77113378047943,145.9679049104452 189.38770061731339,104.99975257739425"></polygon><polygon fill="rgb(247,132,25)" stroke="rgb(247,132,25)" points="163.39832657575607,103.25341241061687 202.89250445365906,92.18047178536654 189.38770061731339,104.99975257739425"></polygon><polygon fill="rgb(119,57,0)" stroke="rgb(119,57,0)" points="338.82758742570877,75.36521945893764 332.97663259506226,80.25391882658005 334.6609198451042,72.78800724446774"></polygon><polygon fill="rgb(119,57,0)" stroke="rgb(119,57,0)" points="331.9161130785942,89.21056962013245 332.97663259506226,80.25391882658005 337.70516180992126,83.40203766524792"></polygon><polygon fill="rgb(119,57,0)" stroke="rgb(119,57,0)" points="298.648989379406,48.41108679771423 339.10576897859573,41.35819172859192 334.6609198451042,72.78800724446774"></polygon><polygon fill="rgb(119,57,0)" stroke="rgb(119,57,0)" points="161.19148117303848,15.67886483669281 230.29084892570972,66.91054126620293 190.62957626581192,49.85516840219498"></polygon><polygon fill="rgb(119,57,0)" stroke="rgb(119,57,0)" points="190.62957626581192,49.85516840219498 151.4862631559372,44.0275082886219 161.19148117303848,15.67886483669281"></polygon><polygon fill="rgb(228,119,25)" stroke="rgb(228,119,25)" points="343.5989098548889,145.88095031678677 333.005129635334,191.76543563604355 285.54167050123215,173.6189955919981"></polygon><polygon fill="rgb(119,57,0)" stroke="rgb(119,57,0)" points="327.4922463297844,102.23428149521351 331.9161130785942,89.21056962013245 335.7860873937607,91.60895082354546"></polygon><polygon fill="rgb(228,119,25)" stroke="rgb(228,119,25)" points="202.89250445365906,92.18047178536654 230.29084892570972,66.91054126620293 231.23513321578503,104.58812589198351"></polygon><polygon fill="rgb(228,119,25)" stroke="rgb(228,119,25)" points="231.23513321578503,104.58812589198351 189.38770061731339,104.99975257739425 202.89250445365906,92.18047178536654"></polygon><polygon fill="rgb(247,132,25)" stroke="rgb(247,132,25)" points="327.4922463297844,102.23428149521351 298.10293051600456,104.35245529562235 286.9464565515518,91.53625598549843"></polygon><polygon fill="rgb(247,132,25)" stroke="rgb(247,132,25)" points="298.10293051600456,104.35245529562235 327.4922463297844,102.23428149521351 343.5989098548889,145.88095031678677"></polygon><polygon fill="rgb(228,119,25)" stroke="rgb(228,119,25)" points="286.9464565515518,91.53625598549843 298.10293051600456,104.35245529562235 254.46291439980268,104.44932120293379"></polygon><polygon fill="rgb(228,119,25)" stroke="rgb(228,119,25)" points="254.46291439980268,104.44932120293379 258.0377524495125,66.60487179458141 286.9464565515518,91.53625598549843"></polygon><polygon fill="rgb(228,119,25)" stroke="rgb(228,119,25)" points="285.54167050123215,173.6189955919981 304.9882648587227,139.31323951482773 343.5989098548889,145.88095031678677"></polygon><polygon fill="rgb(247,132,25)" stroke="rgb(247,132,25)" points="298.10293051600456,104.35245529562235 343.5989098548889,145.88095031678677 304.9882648587227,139.31323951482773"></polygon><polygon fill="rgb(119,57,0)" stroke="rgb(119,57,0)" points="327.78185015916824,12.674230337142944 339.10576897859573,41.35819172859192 298.648989379406,48.41108679771423"></polygon><polygon fill="rgb(119,57,0)" stroke="rgb(119,57,0)" points="298.648989379406,48.41108679771423 258.0377524495125,66.60487179458141 327.78185015916824,12.674230337142944"></polygon><polygon fill="rgb(247,132,25)" stroke="rgb(247,132,25)" points="230.29084892570972,66.91054126620293 258.0377524495125,66.60487179458141 254.46291439980268,104.44932120293379"></polygon><polygon fill="rgb(247,132,25)" stroke="rgb(247,132,25)" points="254.46291439980268,104.44932120293379 231.23513321578503,104.58812589198351 230.29084892570972,66.91054126620293"></polygon><polygon fill="rgb(205,98,0)" stroke="rgb(205,98,0)" points="202.630539894104,173.35091646015644 182.525126516819,139.4746963456273 205.87727800011635,137.92612214386463"></polygon><polygon fill="rgb(205,98,0)" stroke="rgb(205,98,0)" points="205.75870406627655,120.9533222662285 189.38770061731339,104.99975257739425 231.23513321578503,104.58812589198351"></polygon><polygon fill="rgb(205,98,0)" stroke="rgb(205,98,0)" points="285.54167050123215,173.6189955919981 280.0553854107857,137.81321401149035 304.9882648587227,139.31323951482773"></polygon><polygon fill="rgb(228,116,36)" stroke="rgb(228,116,36)" points="189.38770061731339,104.99975257739425 205.75870406627655,120.9533222662285 205.87727800011635,137.92612214386463"></polygon><polygon fill="rgb(247,132,25)" stroke="rgb(247,132,25)" points="189.38770061731339,104.99975257739425 205.87727800011635,137.92612214386463 182.525126516819,139.4746963456273"></polygon><polygon fill="rgb(205,98,0)" stroke="rgb(205,98,0)" points="254.46291439980268,104.44932120293379 298.10293051600456,104.35245529562235 280.55645164847374,120.66909473575652"></polygon><polygon fill="rgb(228,116,36)" stroke="rgb(228,116,36)" points="298.10293051600456,104.35245529562235 280.0553854107857,137.81321401149035 280.55645164847374,120.66909473575652"></polygon><polygon fill="rgb(247,132,25)" stroke="rgb(247,132,25)" points="304.9882648587227,139.31323951482773 280.0553854107857,137.81321401149035 298.10293051600456,104.35245529562235"></polygon><polygon fill="rgb(192,172,157)" stroke="rgb(192,172,157)" points="210.36586609482765,177.67879502475262 202.630539894104,173.35091646015644 223.95303788781166,172.51650707423687"></polygon><polygon fill="rgb(205,98,0)" stroke="rgb(205,98,0)" points="231.23513321578503,104.58812589198351 220.9856635183096,113.71648494154215 205.75870406627655,120.9533222662285"></polygon><polygon fill="rgb(36,51,67)" stroke="rgb(36,51,67)" points="226.8843107521534,125.787239857018 205.75870406627655,120.9533222662285 220.9856635183096,113.71648494154215"></polygon><polygon fill="rgb(247,132,25)" stroke="rgb(247,132,25)" points="205.87727800011635,137.92612214386463 205.75870406627655,120.9533222662285 226.8843107521534,125.787239857018"></polygon><polygon fill="rgb(228,119,25)" stroke="rgb(228,119,25)" points="225.29780566692352,144.33623664826155 202.630539894104,173.35091646015644 205.87727800011635,137.92612214386463"></polygon><polygon fill="rgb(214,194,178)" stroke="rgb(214,194,178)" points="223.16639640927315,162.36344355344772 223.95303788781166,172.51650707423687 202.630539894104,173.35091646015644"></polygon><polygon fill="rgb(214,194,178)" stroke="rgb(214,194,178)" points="202.630539894104,173.35091646015644 225.29780566692352,144.33623664826155 223.16639640927315,162.36344355344772"></polygon><polygon fill="rgb(192,172,157)" stroke="rgb(192,172,157)" points="257.1844917163253,172.61994016170502 285.54167050123215,173.6189955919981 276.1244562417269,177.92936642467976"></polygon><polygon fill="rgb(205,98,0)" stroke="rgb(205,98,0)" points="220.9856635183096,113.71648494154215 231.23513321578503,104.58812589198351 226.8843107521534,125.787239857018"></polygon><polygon fill="rgb(205,98,0)" stroke="rgb(205,98,0)" points="280.55645164847374,120.66909473575652 264.9684294909239,113.50706392340362 254.46291439980268,104.44932120293379"></polygon><polygon fill="rgb(36,51,67)" stroke="rgb(36,51,67)" points="258.3364774212241,125.68840762414038 264.9684294909239,113.50706392340362 280.55645164847374,120.66909473575652"></polygon><polygon fill="rgb(247,132,25)" stroke="rgb(247,132,25)" points="280.0553854107857,137.81321401149035 258.3364774212241,125.68840762414038 280.55645164847374,120.66909473575652"></polygon><polygon fill="rgb(205,98,0)" stroke="rgb(205,98,0)" points="264.9684294909239,113.50706392340362 258.3364774212241,125.68840762414038 254.46291439980268,104.44932120293379"></polygon><polygon fill="rgb(228,116,36)" stroke="rgb(228,116,36)" points="226.8843107521534,125.787239857018 231.23513321578503,104.58812589198351 231.61480202525854,116.45021992083639"></polygon><polygon fill="rgb(247,132,25)" stroke="rgb(247,132,25)" points="231.61480202525854,116.45021992083639 231.23513321578503,104.58812589198351 254.46291439980268,104.44932120293379"></polygon><polygon fill="rgb(228,119,25)" stroke="rgb(228,119,25)" points="254.3776899576187,144.31704082340002 280.0553854107857,137.81321401149035 285.54167050123215,173.6189955919981"></polygon><polygon fill="rgb(214,194,178)" stroke="rgb(214,194,178)" points="256.65980929881334,162.42216710746288 285.54167050123215,173.6189955919981 257.1844917163253,172.61994016170502"></polygon><polygon fill="rgb(214,194,178)" stroke="rgb(214,194,178)" points="285.54167050123215,173.6189955919981 256.65980929881334,162.42216710746288 254.3776899576187,144.31704082340002"></polygon><polygon fill="rgb(247,132,25)" stroke="rgb(247,132,25)" points="254.46291439980268,104.44932120293379 253.034113984555,116.35620957054198 231.61480202525854,116.45021992083639"></polygon><polygon fill="rgb(225,119,25)" stroke="rgb(225,119,25)" points="258.3364774212241,125.68840762414038 253.034113984555,116.35620957054198 254.46291439980268,104.44932120293379"></polygon><polygon fill="rgb(192,172,157)" stroke="rgb(192,172,157)" points="223.95303788781166,172.51650707423687 225.21285523474216,179.70607712864876 210.36586609482765,177.67879502475262"></polygon><polygon fill="rgb(192,172,157)" stroke="rgb(192,172,157)" points="276.1244562417269,177.92936642467976 255.5852373763919,179.82982075214386 257.1844917163253,172.61994016170502"></polygon><polygon fill="rgb(247,132,25)" stroke="rgb(247,132,25)" points="225.29780566692352,144.33623664826155 205.87727800011635,137.92612214386463 226.8843107521534,125.787239857018"></polygon><polygon fill="rgb(247,132,25)" stroke="rgb(247,132,25)" points="258.3364774212241,125.68840762414038 280.0553854107857,137.81321401149035 254.3776899576187,144.31704082340002"></polygon><polygon fill="rgb(228,116,36)" stroke="rgb(228,116,36)" points="231.61480202525854,116.45021992083639 229.0490630865097,141.7219291254878 226.8843107521534,125.787239857018"></polygon><polygon fill="rgb(247,132,25)" stroke="rgb(247,132,25)" points="226.8843107521534,125.787239857018 229.0490630865097,141.7219291254878 225.29780566692352,144.33623664826155"></polygon><polygon fill="rgb(228,116,36)" stroke="rgb(228,116,36)" points="253.034113984555,116.35620957054198 258.3364774212241,125.68840762414038 250.6124873533845,141.70015842467546"></polygon><polygon fill="rgb(247,132,25)" stroke="rgb(247,132,25)" points="254.3776899576187,144.31704082340002 250.6124873533845,141.70015842467546 258.3364774212241,125.68840762414038"></polygon><polygon fill="rgb(247,132,25)" stroke="rgb(247,132,25)" points="231.61480202525854,116.45021992083639 253.034113984555,116.35620957054198 250.6124873533845,141.70015842467546"></polygon><polygon fill="rgb(247,132,25)" stroke="rgb(247,132,25)" points="250.6124873533845,141.70015842467546 229.0490630865097,141.7219291254878 231.61480202525854,116.45021992083639"></polygon><polygon fill="rgb(192,172,157)" stroke="rgb(192,172,157)" points="225.21285523474216,179.70607712864876 223.95303788781166,172.51650707423687 223.16639640927315,162.36344355344772"></polygon><polygon fill="rgb(192,172,157)" stroke="rgb(192,172,157)" points="256.65980929881334,162.42216710746288 257.1844917163253,172.61994016170502 255.5852373763919,179.82982075214386"></polygon><polygon fill="rgb(192,172,157)" stroke="rgb(192,172,157)" points="223.16639640927315,162.36344355344772 224.80140034854412,159.3191495537758 225.21285523474216,179.70607712864876"></polygon><polygon fill="rgb(192,172,157)" stroke="rgb(192,172,157)" points="225.21285523474216,179.70607712864876 224.80140034854412,159.3191495537758 254.38656641542912,159.3589550703764"></polygon><polygon fill="rgb(192,172,157)" stroke="rgb(192,172,157)" points="254.38656641542912,159.3589550703764 255.5852373763919,179.82982075214386 225.21285523474216,179.70607712864876"></polygon><polygon fill="rgb(192,172,157)" stroke="rgb(192,172,157)" points="255.5852373763919,179.82982075214386 254.38656641542912,159.3589550703764 256.65980929881334,162.42216710746288"></polygon><polygon fill="rgb(0,0,0)" stroke="rgb(0,0,0)" points="224.80140034854412,159.3191495537758 223.16639640927315,162.36344355344772 225.29780566692352,144.33623664826155"></polygon><polygon fill="rgb(0,0,0)" stroke="rgb(0,0,0)" points="228.20372115075588,142.8478799983859 229.0490630865097,141.7219291254878 250.6124873533845,141.70015842467546"></polygon><polygon fill="rgb(0,0,0)" stroke="rgb(0,0,0)" points="225.29780566692352,144.33623664826155 229.0490630865097,141.7219291254878 228.20372115075588,142.8478799983859"></polygon><polygon fill="rgb(0,0,0)" stroke="rgb(0,0,0)" points="254.3776899576187,144.31704082340002 256.65980929881334,162.42216710746288 254.38656641542912,159.3589550703764"></polygon><polygon fill="rgb(0,0,0)" stroke="rgb(0,0,0)" points="225.29780566692352,144.33623664826155 225.79690343141556,145.55861003696918 224.80140034854412,159.3191495537758"></polygon><polygon fill="rgb(0,0,0)" stroke="rgb(0,0,0)" points="228.20372115075588,142.8478799983859 225.79690343141556,145.55861003696918 225.29780566692352,144.33623664826155"></polygon><polygon fill="rgb(0,0,0)" stroke="rgb(0,0,0)" points="250.6124873533845,141.70015842467546 250.18215372785926,142.82900113612413 228.20372115075588,142.8478799983859"></polygon><polygon fill="rgb(0,0,0)" stroke="rgb(0,0,0)" points="250.18215372785926,142.82900113612413 250.6124873533845,141.70015842467546 254.3776899576187,144.31704082340002"></polygon><polygon fill="rgb(0,0,0)" stroke="rgb(0,0,0)" points="254.38656641542912,159.3589550703764 252.59153055399656,145.54530651122332 254.3776899576187,144.31704082340002"></polygon><polygon fill="rgb(0,0,0)" stroke="rgb(0,0,0)" points="254.3776899576187,144.31704082340002 252.59153055399656,145.54530651122332 250.18215372785926,142.82900113612413"></polygon><polygon fill="rgb(0,0,0)" stroke="rgb(0,0,0)" points="254.38656641542912,159.3589550703764 224.80140034854412,159.3191495537758 225.79690343141556,145.55861003696918"></polygon><polygon fill="rgb(0,0,0)" stroke="rgb(0,0,0)" points="225.79690343141556,145.55861003696918 252.59153055399656,145.54530651122332 254.38656641542912,159.3589550703764"></polygon><polygon fill="rgb(0,0,0)" stroke="rgb(0,0,0)" points="225.79690343141556,145.55861003696918 228.20372115075588,142.8478799983859 250.18215372785926,142.82900113612413"></polygon><polygon fill="rgb(0,0,0)" stroke="rgb(0,0,0)" points="250.18215372785926,142.82900113612413 252.59153055399656,145.54530651122332 225.79690343141556,145.55861003696918"></polygon></svg>